# xmcd
#
# Track frame offsets: 
#        150
#        23875
#        48418
#        62315
#        79535
#        101017
#        122802
#        149202
#        170793
#
# Disc length: 2546 seconds
#
# Revision: 0
# Processed by: cddbd v1.5.2PL0 Copyright (c) Steve Scherf et al.
# Submitted via: ExactAudioCopy v0.95a5
#
DISCID=7b09f009
DTITLE=B B de Vouex - Blue volution
DYEAR=1900
DGENRE=Blues
TTITLE0=Masquenada
TTITLE1=Sometimes when we touch
TTITLE2=Dream a little dream
TTITLE3=With You I'm born again
TTITLE4=Sound of silent
TTITLE5=Autumn leaves
TTITLE6=It might be you
TTITLE7=Windmill of your mind
TTITLE8=Come rain or come shine
EXTD=
EXTT0=
EXTT1=
EXTT2=
EXTT3=
EXTT4=
EXTT5=
EXTT6=
EXTT7=
EXTT8=
PLAYORDER=
